<?xml version="1.0" encoding="UTF-8"?>
<svg xmlns="http://www.w3.org/2000/svg" xmlns:xlink="http://www.w3.org/1999/xlink" viewBox="0 0 50 50" width="50px" height="50px">
<g id="surface78061231">
<path style=" stroke:none;fill-rule:nonzero;fill:rgb(100%,100%,100%);fill-opacity:1;" d="M 25 2 C 12.316406 2 2 12.316406 2 25 C 2 37.683594 12.316406 48 25 48 C 37.683594 48 48 37.683594 48 25 C 48 21.574219 47.242188 18.324219 45.894531 15.402344 C 44.96875 16.910156 43.527344 18.074219 41.816406 18.632812 C 42.570312 20.613281 43 22.753906 43 25 C 43 34.925781 34.925781 43 25 43 C 15.074219 43 7 34.925781 7 25 C 7 15.074219 15.074219 7 25 7 C 27.699219 7 30.253906 7.613281 32.550781 8.683594 C 33.226562 7.023438 34.480469 5.660156 36.058594 4.84375 C 32.777344 3.03125 29.007812 2 25 2 Z M 39.5 6 C 36.460938 6 34 8.460938 34 11.5 C 34 14.539062 36.460938 17 39.5 17 C 42.539062 17 45 14.539062 45 11.5 C 45 8.460938 42.539062 6 39.5 6 Z M 25 15 C 19.476562 15 15 19.476562 15 25 C 15 30.523438 19.476562 35 25 35 C 30.523438 35 35 30.523438 35 25 C 35 19.476562 30.523438 15 25 15 Z M 25 15 "/>
</g>
</svg>
