<svg width="100" height="100" viewBox="0 0 100 100" fill="none" xmlns="http://www.w3.org/2000/svg">
<path d="M20.4696 20.5334C21.6992 19.8238 23.3008 19.8206 24.5294 20.5334C30.71 24.0547 36.8924 27.5705 43.072 31.0939C44.2342 31.7541 45.0116 33.0582 44.9997 34.4087V55.594C45.0086 57.0004 44.1542 58.3357 42.928 58.981C36.7677 62.4827 30.6106 65.989 24.4514 69.4907C23.1964 70.2144 21.5628 70.1586 20.347 69.3757C18.5001 68.2962 16.65 67.2222 14.803 66.1436C14.4256 65.9167 14.0002 65.7362 13.7336 65.3672C13.9692 65.047 14.3904 65.0072 14.7327 64.8674C15.5037 64.6202 16.2117 64.2236 16.9199 63.8386C17.099 63.715 17.3177 63.7622 17.4893 63.8727C19.0686 64.7857 20.634 65.7254 22.2184 66.6296C22.5564 66.8264 22.8988 66.5652 23.1878 66.4027C29.2327 62.958 35.2854 59.526 41.3296 56.08C41.5534 55.9714 41.6772 55.7317 41.659 55.4844C41.6632 48.4958 41.66 41.506 41.6612 34.5172C41.6867 34.2366 41.5256 33.9786 41.274 33.8637C35.135 30.3778 28.9994 26.8867 22.8614 23.3999C22.7552 23.3262 22.6292 23.2867 22.5002 23.2865C22.371 23.2862 22.245 23.3255 22.1384 23.3988C16.0007 26.8867 9.86599 30.3811 3.72807 33.8667C3.47732 33.9817 3.30899 34.2356 3.33882 34.5172C3.3399 41.506 3.33882 48.4958 3.33882 55.4854C3.32824 55.6062 3.35449 55.7272 3.41415 55.8324C3.47382 55.9376 3.56407 56.0217 3.67265 56.0736C5.31057 57.0102 6.95057 57.94 8.58957 58.8734C9.5129 59.3746 10.6466 59.6722 11.6639 59.2882C12.5616 58.9636 13.1909 58.04 13.1737 57.0787C13.1822 50.131 13.1695 43.182 13.1801 36.2353C13.1577 35.9269 13.4478 35.6721 13.7452 35.7011C14.5322 35.6957 15.3203 35.6904 16.1073 35.7032C16.4358 35.6957 16.6618 36.0279 16.6212 36.3387C16.6181 43.3306 16.6297 50.3226 16.6159 57.3144C16.6181 59.1776 15.8588 61.2052 14.1493 62.117C12.0434 63.217 9.44049 62.9837 7.35999 61.929C5.5589 61.0226 3.84007 59.9527 2.0709 58.9817C0.841486 58.3402 -0.00851409 56.9994 0.000152576 55.5942V34.4087C-0.0127641 33.0303 0.79557 31.7024 1.99407 31.0519C8.15332 27.5472 14.3115 24.0397 20.4696 20.5334Z" fill="white"/>
<path d="M25.8426 35.2087C28.5289 35.0344 31.4049 35.1054 33.822 36.4398C35.6936 37.4623 36.7312 39.6083 36.7642 41.7048C36.7118 41.9876 36.4189 42.1436 36.151 42.1242C35.3716 42.1232 34.592 42.1348 33.8126 42.1188C33.482 42.1316 33.2899 41.8242 33.2484 41.5296C33.0244 40.5264 32.4819 39.5329 31.5454 39.0491C30.108 38.3234 28.4412 38.3599 26.8739 38.3751C25.7296 38.4364 24.4992 38.5363 23.5296 39.2148C22.7854 39.7287 22.5594 40.7662 22.825 41.6016C23.0754 42.2016 23.7622 42.3952 24.3242 42.5736C27.5616 43.4274 30.9922 43.3424 34.1676 44.4658C35.4822 44.9238 36.7684 45.8142 37.2184 47.2022C37.8072 49.0624 37.549 51.2858 36.2365 52.7792C35.172 54.0082 33.6219 54.677 32.0754 55.0402C30.0184 55.5028 27.8839 55.5144 25.7949 55.3092C23.8304 55.0834 21.7862 54.563 20.2699 53.2136C18.9732 52.0782 18.3399 50.3094 18.4027 48.6022C18.4177 48.314 18.7024 48.1128 18.9764 48.1366C19.7612 48.1302 20.5462 48.128 21.331 48.1376C21.6444 48.115 21.8769 48.3882 21.893 48.6862C22.0379 49.6418 22.394 50.645 23.2206 51.2116C24.8159 52.2492 26.8172 52.1782 28.6439 52.2072C30.157 52.1396 31.8559 52.119 33.0906 51.1106C33.7422 50.5354 33.9352 49.5732 33.7592 48.7452C33.5684 48.0462 32.8432 47.7206 32.2204 47.5076C29.0246 46.4882 25.5559 46.8582 22.3909 45.7054C21.106 45.2476 19.8635 44.382 19.3699 43.051C18.681 41.1674 18.9967 38.8374 20.4469 37.3944C21.8609 35.9591 23.902 35.4064 25.8426 35.2085V35.2087Z" fill="white"/>
</svg>
