<svg width="100" height="100" viewBox="0 0 100 100" fill="none" xmlns="http://www.w3.org/2000/svg">
<path d="M0 50.0058C0 46.2863 4.64574 42.7615 11.7684 40.5757C10.1247 33.2971 10.8553 27.5063 14.0742 25.6523C14.8162 25.2174 15.6837 25.0114 16.6311 25.0114V27.5635C16.106 27.5635 15.6837 27.6665 15.3298 27.8611C13.7774 28.7537 13.1039 32.1527 13.6291 36.5244C13.7546 37.6002 13.96 38.7331 14.2112 39.889C16.4485 39.3397 18.8911 38.9162 21.4595 38.6416C23.0004 36.5244 24.5985 34.6017 26.2079 32.9194C22.4868 29.4518 18.9939 27.5521 16.6196 27.5521V25C19.7586 25 23.868 27.2431 28.0228 31.1342C32.1778 27.266 36.287 25.0457 39.426 25.0457V27.5978C37.0632 27.5978 33.5589 29.4862 29.8377 32.9309C31.4358 34.6132 33.0338 36.5244 34.552 38.6416C37.1317 38.9162 39.5744 39.3397 41.8117 39.9004C42.0742 38.756 42.2682 37.6459 42.4052 36.5816C42.9417 32.2099 42.2797 28.8109 40.7387 27.9068C40.3962 27.7008 39.9511 27.6093 39.426 27.6093V25.0573C40.3849 25.0573 41.2524 25.2632 42.0057 25.6981C45.2132 27.5521 45.9323 33.3314 44.2772 40.5871C51.3771 42.7844 56 46.2977 56 50.0058C56 53.7251 51.3543 57.2499 44.2316 59.4358C45.8753 66.7143 45.1447 72.5052 41.9258 74.3591C41.1838 74.794 40.3163 75 39.3576 75C36.2185 75 32.1092 72.7569 27.9544 68.8658C23.7994 72.734 19.6902 74.9542 16.5512 74.9542C15.5923 74.9542 14.7248 74.7483 13.9715 74.3133C10.764 72.4593 10.0448 66.68 11.7 59.4243C4.62292 57.2385 0 53.7137 0 50.0058ZM14.8618 42.3724C15.2842 43.8487 15.8092 45.3707 16.4027 46.8929C16.8708 45.9773 17.3616 45.0618 17.8981 44.1462C18.4232 43.2307 18.9825 42.3381 19.5417 41.4683C17.9209 41.7087 16.3571 42.0062 14.8618 42.3724ZM20.0897 54.5605C20.98 56.1055 21.8932 57.5704 22.8406 58.9322C24.5414 59.081 26.265 59.1612 28 59.1612C29.7236 59.1612 31.4472 59.081 33.1365 58.9437C34.0839 57.5818 35.0085 56.1284 35.8989 54.5948C36.7664 53.0957 37.554 51.5736 38.2732 50.0401C37.5655 48.5065 36.7664 46.973 35.9103 45.4737C35.02 43.9288 34.1068 42.4639 33.1594 41.1021C31.4586 40.9533 29.735 40.8732 28 40.8732C26.2764 40.8732 24.5528 40.9533 22.8635 41.0907C21.9161 42.4525 20.9915 43.9059 20.1011 45.4395C19.2336 46.9387 18.446 48.4607 17.7268 49.9942C18.446 51.5278 19.2336 53.0613 20.0897 54.5605ZM16.4027 53.0728C15.7864 54.6063 15.2613 56.1398 14.8275 57.6276C16.3228 57.9938 17.8981 58.3028 19.5304 58.5432C18.971 57.6619 18.4117 56.7578 17.8867 55.8308C17.3616 54.9153 16.8708 53.9883 16.4027 53.0728ZM27.9772 65.2838C29.0388 64.1852 30.1003 62.9607 31.1505 61.6217C30.1232 61.6674 29.0729 61.7017 28.0115 61.7017C26.9384 61.7017 25.8768 61.6788 24.8382 61.6217C25.8655 62.9607 26.9271 64.1852 27.9772 65.2838ZM36.4696 58.5432C38.0905 58.3028 39.6543 58.0052 41.1496 57.6391C40.7273 56.1627 40.2022 54.6407 39.6086 53.1186C39.1407 54.0341 38.6498 54.9497 38.1133 55.8652C37.5768 56.7807 37.029 57.6734 36.4696 58.5432ZM28.0343 34.7277C26.9727 35.8263 25.9111 37.0508 24.861 38.3897C25.8883 38.344 26.9384 38.3097 28 38.3097C29.0729 38.3097 30.1345 38.3326 31.1733 38.3897C30.146 37.0508 29.0844 35.8263 28.0343 34.7277ZM36.4811 41.4683C37.0403 42.3495 37.5997 43.2536 38.1247 44.1806C38.6498 45.0962 39.1407 46.0117 39.6086 46.9272C40.2251 45.3937 40.7501 43.8602 41.1838 42.3724C39.6885 42.0176 38.1133 41.7087 36.4811 41.4683ZM46.8112 55.7965C50.852 54.0684 53.466 51.8025 53.466 50.0058C53.466 48.209 50.852 45.9316 46.8112 44.2149C45.8296 43.7915 44.7566 43.4138 43.6494 43.0591C42.9988 45.3022 42.1427 47.6368 41.0811 50.0286C42.1313 52.409 42.9759 54.7322 43.6151 56.9638C44.7452 56.6091 45.8182 56.2199 46.8112 55.7965ZM40.6702 72.1503C42.2226 71.2577 42.8961 67.8588 42.3709 63.4871C42.2454 62.4113 42.04 61.2783 41.7888 60.1224C39.5515 60.6717 37.1089 61.0952 34.5405 61.3698C32.9996 63.4871 31.4015 65.4097 29.7921 67.092C33.5132 70.5596 37.0061 72.4593 39.3804 72.4593C39.894 72.4479 40.3278 72.3449 40.6702 72.1503ZM13.5948 63.4298C13.0583 67.8016 13.7203 71.2005 15.2613 72.1046C15.6038 72.3106 16.0489 72.4022 16.574 72.4022C18.9368 72.4022 22.4411 70.5138 26.1623 67.0691C24.5642 65.3868 22.9662 63.4756 21.448 61.3584C18.8683 61.0837 16.4256 60.6603 14.1883 60.0996C13.9258 61.2554 13.7203 62.3655 13.5948 63.4298ZM9.20013 55.7965C10.1818 56.2199 11.2548 56.5976 12.362 56.9524C13.0126 54.7093 13.8687 52.3747 14.9303 49.9828C13.8801 47.6024 13.0355 45.2793 12.3962 43.0476C11.2662 43.4024 10.1933 43.7915 9.18876 44.2149C5.14799 45.943 2.53404 48.209 2.53404 50.0058C2.54549 51.8025 5.15935 54.0799 9.20013 55.7965Z" fill="white"/>
<path d="M28.0134 55.2354C25.1324 55.2354 22.7969 52.8939 22.7969 50.0054C22.7969 47.1169 25.1324 44.7754 28.0134 44.7754C30.8943 44.7754 33.2298 47.1169 33.2298 50.0054C33.2298 52.8939 30.8943 55.2354 28.0134 55.2354Z" fill="white"/>
</svg>
