<svg width="100" height="100" viewBox="0 0 100 100" fill="none" xmlns="http://www.w3.org/2000/svg">
<path d="M47.9729 36.3113C47.9907 36.378 47.9999 36.4467 48 36.5157V47.2481C48 47.3859 47.9641 47.5212 47.8958 47.6404C47.8276 47.7596 47.7295 47.8584 47.6115 47.927L38.7091 53.1132V63.3926C38.7091 63.6724 38.5623 63.9306 38.3225 64.0715L19.7398 74.8957C19.6973 74.9202 19.6509 74.9358 19.6045 74.9525C19.5871 74.9583 19.5706 74.9691 19.5523 74.974C19.4224 75.0087 19.2858 75.0087 19.1559 74.974C19.1347 74.9682 19.1153 74.9563 19.0951 74.9486C19.0524 74.933 19.008 74.9192 18.9674 74.8957L0.388635 64.0715C0.270621 64.0029 0.172551 63.904 0.104275 63.7847C0.0360823 63.6656 8.27586e-05 63.5304 0 63.3926V31.1955C0 31.1251 0.00968242 31.0567 0.0270617 30.9901C0.0328548 30.9676 0.0464269 30.9471 0.0541235 30.9246C0.0686062 30.8835 0.0821793 30.8414 0.103448 30.8032C0.117931 30.7778 0.1392 30.7573 0.156579 30.7338C0.178841 30.7025 0.199117 30.6702 0.225269 30.6429C0.247448 30.6204 0.276497 30.6037 0.301573 30.5842C0.329628 30.5607 0.354786 30.5353 0.386648 30.5167H0.387641L9.67754 25.1045C9.79514 25.0361 9.92847 25 10.0642 25C10.1999 25 10.3333 25.0361 10.4509 25.1045L19.7407 30.5167H19.7427C19.7736 30.5363 19.7998 30.5607 19.8277 30.5832C19.853 30.6027 19.8809 30.6204 19.9031 30.6419C19.9303 30.6702 19.9496 30.7025 19.9727 30.7338C19.9893 30.7573 20.0114 30.7778 20.025 30.8032C20.0473 30.8424 20.0598 30.8835 20.0753 30.9246C20.083 30.9471 20.0965 30.9676 20.1023 30.9911C20.1201 31.0577 20.1292 31.1265 20.1294 31.1955V51.3055L27.8706 46.7952V36.5148C27.8706 36.4463 27.8803 36.3768 27.8977 36.3113C27.9044 36.2878 27.9171 36.2673 27.9247 36.2448C27.9402 36.2037 27.9537 36.1617 27.9751 36.1235C27.9895 36.0981 28.0107 36.0775 28.0273 36.0541C28.0504 36.0228 28.0697 35.9905 28.0969 35.9631C28.1191 35.9406 28.1471 35.924 28.1723 35.9044C28.2012 35.8809 28.2264 35.8555 28.2574 35.8369H28.2583L37.5491 30.4248C37.6667 30.3562 37.8001 30.3201 37.9358 30.3201C38.0715 30.3201 38.2049 30.3562 38.3225 30.4248L47.6124 35.8369C47.6452 35.8565 47.6704 35.8809 47.6993 35.9034C47.7236 35.923 47.7516 35.9406 47.7738 35.9621C47.8009 35.9905 47.8202 36.0228 47.8434 36.0541C47.8609 36.0775 47.8821 36.0981 47.8956 36.1235C47.9179 36.1617 47.9304 36.2037 47.9459 36.2448C47.9546 36.2673 47.9672 36.2878 47.9729 36.3113ZM46.4513 46.7952V37.8705L43.2004 39.7642L38.7091 42.3807V51.3055L46.4523 46.7952H46.4513ZM37.1615 62.9397V54.0091L32.7437 56.5621L20.1284 63.8475V72.8622L37.1615 62.9397ZM1.54866 32.5502V62.9397L18.5797 72.8612V63.8485L9.68235 58.7532L9.67945 58.7512L9.67564 58.7492C9.6456 58.7317 9.62052 58.7062 9.59247 58.6847C9.5683 58.6652 9.54025 58.6495 9.51898 58.628L9.51708 58.6251C9.49192 58.6006 9.47454 58.5702 9.45327 58.5429C9.4339 58.5165 9.41073 58.494 9.39526 58.4666L9.39426 58.4637C9.37688 58.4342 9.36629 58.3991 9.35371 58.3659C9.34113 58.3365 9.32466 58.3091 9.31697 58.2777V58.2769C9.30728 58.2397 9.30538 58.2006 9.30149 58.1624C9.2976 58.1331 9.2899 58.1037 9.2899 58.0744V37.0606L4.79959 34.443L1.54866 32.5512V32.5502ZM10.0652 26.6872L2.32486 31.1955L10.0632 35.7039L17.8025 31.1946L10.0632 26.6872H10.0652ZM14.0905 54.823L18.5807 52.2074V32.5502L15.3298 34.444L10.8385 37.0606V56.7177L14.0905 54.823ZM37.9358 32.0074L30.1966 36.5157L37.9358 41.0241L45.6742 36.5148L37.9358 32.0074ZM37.1615 42.3807L32.6703 39.7642L29.4193 37.8705V46.7952L33.9096 49.4107L37.1615 51.3055V42.3807ZM19.3532 62.4927L30.705 55.9351L36.3795 52.6582L28.6459 48.1529L19.7417 53.3401L11.6263 58.0675L19.3532 62.4927Z" fill="white"/>
</svg>
